<svg width="326" height="326" version="1.1" viewBox="0 0 86.253 86.253" xmlns="http://www.w3.org/2000/svg" xmlns:xlink="http://www.w3.org/1999/xlink">
 <defs>
  <symbol id="a" overflow="visible">
   <path d="m5.4844-6.7344c1.0078 0 1.8633 0.35547 2.5625 1.0625 0.70703 0.69922 1.0625 1.5469 1.0625 2.5469 0 0.99219-0.35547 1.8398-1.0625 2.5469-0.69922 0.69531-1.5547 1.0469-2.5625 1.0469-0.99219 0-1.8398-0.35156-2.5469-1.0469-0.69922-0.70703-1.0469-1.5547-1.0469-2.5469 0-1 0.34766-1.8477 1.0469-2.5469 0.70703-0.70703 1.5547-1.0625 2.5469-1.0625z"/>
  </symbol>
 </defs>
 <g transform="translate(-68.16 -299.96)">
  <g transform="matrix(.5086 0 0 .5086 194.57 270.53)" fill="#4c566a">
   <use transform="matrix(4.9778 0 0 4.9778 -1831.3 -762.38)" x="336.29138" y="195.44998" width="100%" height="100%" xlink:href="#a"/>
   <path d="m-195.49 72.447a20.041 20.041 0 0 0-19.834 20.038 20.041 20.041 0 0 0 9.7929 17.223v65.866a20.041 20.041 0 0 0-9.8436 17.252 20.041 20.041 0 0 0 20.037 20.045 20.041 20.041 0 0 0 20.045-20.045 20.041 20.041 0 0 0-5.8188-14.109c1.4478-1.5433 2.7784-2.7023 3.9959-3.4854 2.6806-1.7243 5.2391-2.4602 10.252-2.5084 15.856-0.15239 28.531-8.4784 35.358-19.185 6.0089-9.4234 6.7742-18.618 6.8686-23.902a20.041 20.041 0 0 0 9.8366-17.252 20.041 20.041 0 0 0-20.045-20.038 20.041 20.041 0 0 0-0.20472 0 20.041 20.041 0 0 0-19.834 20.038 20.041 20.041 0 0 0 10.085 17.398c-0.0563 3.8333-0.49388 7.9248-3.6825 12.928-3.4422 5.3985-9.4271 9.7486-18.572 9.8365-6.3956 0.0621-12.64 1.2814-18.193 4.1198v-46.835a20.041 20.041 0 0 0 10.004-17.347 20.041 20.041 0 0 0-20.045-20.038 20.041 20.041 0 0 0-0.20472 0zm-0.141 10.092a10.066 10.066 0 0 1 0.35148 0 10.066 10.066 0 0 1 10.062 10.063 10.066 10.066 0 0 1-10.062 10.07 10.066 10.066 0 0 1-10.063-10.07 10.066 10.066 0 0 1 9.7124-10.063zm60.434 19.899a10.066 10.066 0 0 1 0.35148 0 10.066 10.066 0 0 1 10.062 10.063 10.066 10.066 0 0 1-10.062 10.07 10.066 10.066 0 0 1-10.063-10.07 10.066 10.066 0 0 1 9.7053-10.063zm-60.492 80.442a10.066 10.066 0 0 1 0.35148 0 10.066 10.066 0 0 1 10.063 10.063 10.066 10.066 0 0 1-10.063 10.07 10.066 10.066 0 0 1-10.063-10.07 10.066 10.066 0 0 1 9.7052-10.063z" opacity=".999"/>
  </g>
 </g>
</svg>
